<svg xmlns="http://www.w3.org/2000/svg" width="8.753" height="9.533" viewBox="0 0 8.753 9.533">
  <g id="Path_11" data-name="Path 11" transform="translate(-958.259 151.826)">
    <path id="Path_10" data-name="Path 10" d="M962.645-143.115l-.309-.136-2.878-1.264-.448-.2v-4.634l.439-.2,2.878-1.314.312-.142.312.142,2.876,1.314.438.2v4.562l-.436.2-2.876,1.326Z" fill="rgba(31,32,30,0.75)"/>
    <path id="Path_11-2" data-name="Path 11" d="M962.637-150.177l-2.878,1.314v3.662l2.878,1.264,2.876-1.326v-3.6l-2.876-1.314m0-1.649.623.285,2.876,1.314.877.4v5.524l-.872.4-2.876,1.326-.613.283-.618-.271-2.878-1.264-.9-.394v-5.606l.877-.4,2.878-1.314Z" fill="#1f201e"/>
  </g>
</svg>
