<svg xmlns="http://www.w3.org/2000/svg" width="151.33" height="157.647" viewBox="0 0 151.33 157.647">
  <path id="Intersection_3" data-name="Intersection 3" d="M80.349,148.486l56.95-25.862L80.349,96.762V87.649l68.072,30.821v8.308L80.349,157.463ZM-.05,126.778V118.47L68.021,87.649v9.113L11.072,122.623l56.949,25.862v8.977Zm142.413-19.305V52.564l8.916-3.36v62.211ZM.368,48.514l8.916,3.36v54.908L.368,110.724ZM80.349,60.653,137.3,34.79,80.349,8.929V-.184l68.072,30.82v8.308L80.349,69.63ZM-.05,38.945V30.637L68.021-.184V8.929L11.072,34.79,68.021,60.653V69.63Z" transform="translate(0.05 0.184)" fill="#8f97c6"/>
</svg>
